<svg width="319" height="321" viewBox="0 0 319 321" fill="none" xmlns="http://www.w3.org/2000/svg">
<path fill-rule="evenodd" clip-rule="evenodd" d="M160.49 0.280273C202.749 0.301436 242.4 16.7768 272.209 46.6907C302.039 76.5939 318.438 116.338 318.417 158.611C318.385 245.855 247.521 316.825 160.48 316.825H160.416C133.997 316.815 108.021 310.17 84.9482 297.578L24.6646 319.185C10.1138 324.391 -3.84577 310.127 1.63456 295.641L23.6298 237.591C9.81808 213.603 2.54266 186.377 2.55322 158.495C2.59546 71.2503 73.4385 0.280273 160.49 0.280273ZM160.437 285.716H160.49C230.425 285.716 287.351 228.703 287.372 158.611C287.383 124.655 274.204 92.7095 250.245 68.679C226.296 44.659 194.428 31.411 160.543 31.4004C90.5553 31.4004 33.6401 88.4135 33.6084 158.505C33.5873 182.525 40.3031 205.91 53.0061 226.153L56.0155 230.957L43.2069 277.864L91.2311 265.241L95.8667 268.002C115.349 279.589 137.671 285.716 160.437 285.716ZM69.9644 187.996C66.8388 177.943 74.2621 167.711 84.7687 167.711C91.6112 167.711 97.5878 172.208 99.6152 178.747C105.877 198.831 121.695 214.682 141.737 220.957C148.262 222.999 152.75 228.988 152.75 235.834C152.75 246.374 142.539 253.802 132.508 250.67C102.73 241.379 79.2355 217.835 69.9644 187.996ZM99.6152 140.442C97.5772 146.982 91.6006 151.479 84.7687 151.479C74.2621 151.479 66.8494 141.247 69.9644 131.194C79.2355 101.354 102.73 77.8106 132.508 68.52C142.539 65.3879 152.75 72.8267 152.75 83.3553C152.75 90.2015 148.262 96.1906 141.737 98.2328C121.695 104.508 105.877 120.359 99.6152 140.442ZM251.745 131.194C254.87 141.247 247.447 151.479 236.94 151.479C230.098 151.479 224.132 146.971 222.094 140.442C215.832 120.359 200.014 104.508 179.972 98.2328C173.447 96.1906 168.959 90.2015 168.959 83.3553C168.959 72.8161 179.17 65.3879 189.201 68.52C218.979 77.8106 242.473 101.354 251.745 131.194ZM189.201 250.67C179.17 253.802 168.959 246.363 168.959 235.834C168.959 228.988 173.447 222.999 179.972 220.957C200.014 214.682 215.832 198.831 222.094 178.747C224.132 172.208 230.108 167.711 236.94 167.711C247.457 167.711 254.87 177.943 251.745 187.996C242.473 217.835 218.979 241.379 189.201 250.67Z" fill="url(#paint0_linear_1206_3671)"/>
<defs>
<linearGradient id="paint0_linear_1206_3671" x1="160.856" y1="-6.16327" x2="160.856" y2="320.864" gradientUnits="userSpaceOnUse">
<stop stop-color="#149C0D"/>
<stop offset="1" stop-color="#20C751"/>
</linearGradient>
</defs>
</svg>
