<svg width="321" height="321" viewBox="0 0 321 321" fill="none" xmlns="http://www.w3.org/2000/svg">
<path d="M188.616 160.332L314.474 34.4735C316.331 32.6163 317.804 30.4115 318.809 27.985C319.814 25.5585 320.332 22.9578 320.332 20.3314C320.332 17.705 319.814 15.1043 318.809 12.6778C317.804 10.2513 316.331 8.04653 314.474 6.18937C312.617 4.33221 310.412 2.85903 307.985 1.85394C305.559 0.848855 302.958 0.331543 300.332 0.331543C297.705 0.331543 295.105 0.848855 292.678 1.85394C290.252 2.85903 288.047 4.33221 286.19 6.18937L160.332 132.047L34.4735 6.18937C32.6163 4.33221 30.4115 2.85903 27.985 1.85394C25.5585 0.848855 22.9578 0.331543 20.3314 0.331543C17.705 0.331543 15.1043 0.848855 12.6778 1.85394C10.2513 2.85903 8.04653 4.33221 6.18937 6.18937C4.33221 8.04653 2.85903 10.2513 1.85394 12.6778C0.848855 15.1043 0.331543 17.705 0.331543 20.3314C0.331543 22.9578 0.848855 25.5585 1.85394 27.985C2.85903 30.4115 4.33221 32.6163 6.18937 34.4735L132.047 160.332L6.18937 286.19C4.33221 288.047 2.85903 290.252 1.85394 292.678C0.848855 295.105 0.331543 297.705 0.331543 300.332C0.331543 302.958 0.848855 305.559 1.85394 307.985C2.85903 310.412 4.33221 312.617 6.18937 314.474C8.04653 316.331 10.2513 317.804 12.6778 318.809C15.1043 319.814 17.705 320.332 20.3314 320.332C22.9578 320.332 25.5585 319.814 27.985 318.809C30.4115 317.804 32.6163 316.331 34.4735 314.474L160.332 188.616L286.19 314.474C288.047 316.331 290.252 317.804 292.678 318.809C295.105 319.814 297.705 320.332 300.332 320.332C302.958 320.332 305.559 319.814 307.985 318.809C310.412 317.804 312.617 316.331 314.474 314.474C316.331 312.617 317.804 310.412 318.809 307.985C319.814 305.559 320.332 302.958 320.332 300.332C320.332 297.705 319.814 295.105 318.809 292.678C317.804 290.252 316.331 288.047 314.474 286.19L188.616 160.332Z" fill="#D6D9D9"/>
</svg>
