<svg width="25" height="24" viewBox="0 0 25 24" fill="none" xmlns="http://www.w3.org/2000/svg">
<path fill-rule="evenodd" clip-rule="evenodd" d="M5 21.75C5 21.3358 5.33579 21 5.75 21H19.25C19.6642 21 20 21.3358 20 21.75C20 22.1642 19.6642 22.5 19.25 22.5H5.75C5.33579 22.5 5 22.1642 5 21.75Z" fill="#141414" fill-opacity="0.5"/>
<path fill-rule="evenodd" clip-rule="evenodd" d="M12.5 7.5C11.2574 7.5 10.25 8.50736 10.25 9.75C10.25 10.9926 11.2574 12 12.5 12C13.7426 12 14.75 10.9926 14.75 9.75C14.75 8.50736 13.7426 7.5 12.5 7.5ZM8.75 9.75C8.75 7.67893 10.4289 6 12.5 6C14.5711 6 16.25 7.67893 16.25 9.75C16.25 11.8211 14.5711 13.5 12.5 13.5C10.4289 13.5 8.75 11.8211 8.75 9.75Z" fill="#141414" fill-opacity="0.5"/>
<path fill-rule="evenodd" clip-rule="evenodd" d="M12.5 3C10.7098 3 8.9929 3.71116 7.72703 4.97703C6.46116 6.2429 5.75 7.95979 5.75 9.75C5.75 12.855 7.48389 15.6822 9.31595 17.7891C10.2228 18.832 11.1316 19.6729 11.8139 20.2528C12.0837 20.4821 12.3172 20.6699 12.5 20.8125C12.6828 20.6699 12.9163 20.4821 13.1861 20.2528C13.8684 19.6729 14.7772 18.832 15.684 17.7891C17.5161 15.6822 19.25 12.855 19.25 9.75C19.25 7.95979 18.5388 6.2429 17.273 4.97703C16.0071 3.71116 14.2902 3 12.5 3ZM12.5 21.75C12.0699 22.3644 12.0697 22.3643 12.0695 22.3641L12.0688 22.3637L12.0671 22.3624L12.0615 22.3585L12.0425 22.345C12.0263 22.3334 12.0031 22.3167 11.9736 22.2952C11.9144 22.252 11.8294 22.189 11.7223 22.1071C11.5081 21.9434 11.2049 21.7038 10.8424 21.3957C10.1184 20.7803 9.15217 19.8867 8.18405 18.7734C6.26611 16.5678 4.25 13.395 4.25 9.75C4.25 7.56196 5.11919 5.46354 6.66637 3.91637C8.21354 2.36919 10.312 1.5 12.5 1.5C14.688 1.5 16.7865 2.36919 18.3336 3.91637C19.8808 5.46354 20.75 7.56196 20.75 9.75C20.75 13.395 18.7339 16.5678 16.816 18.7734C15.8478 19.8867 14.8816 20.7803 14.1576 21.3957C13.7951 21.7038 13.4919 21.9434 13.2777 22.1071C13.1706 22.189 13.0856 22.252 13.0264 22.2952C12.9969 22.3167 12.9737 22.3334 12.9575 22.345L12.9385 22.3585L12.9329 22.3624L12.9312 22.3637L12.9305 22.3641C12.9303 22.3643 12.9301 22.3644 12.5 21.75ZM12.5 21.75L12.9301 22.3644C12.6719 22.5452 12.3281 22.5452 12.0699 22.3644L12.5 21.75Z" fill="#141414" fill-opacity="0.5"/>
</svg>
